<svg
          xmlns="http://www.w3.org/2000/svg"
          width="9"
          height="9"
          viewBox="0 0 9 9"
          fill="none"
        >
          <rect
            x="5.05029"
            y="6.31273"
            width="1.2625"
            height="1.2625"
            fill="#4D4D4D"
          />
          <rect
            x="2.52502"
            y="6.31273"
            width="1.2625"
            height="1.2625"
            fill="#4D4D4D"
          />
          <rect
            x="3.7876"
            y="6.31273"
            width="1.2625"
            height="1.2625"
            fill="#4D4D4D"
          />
          <rect
            x="3.7876"
            y="7.57524"
            width="1.2625"
            height="1.2625"
            fill="#4D4D4D"
          />
          <rect
            x="5.05029"
            y="5.05025"
            width="1.2625"
            height="1.2625"
            fill="#4D4D4D"
          />
          <rect
            x="2.52502"
            y="5.05025"
            width="1.2625"
            height="1.2625"
            fill="#4D4D4D"
          />
          <rect
            x="3.7876"
            y="5.05025"
            width="1.2625"
            height="1.2625"
            fill="#4D4D4D"
          />
          <rect
            x="5.05029"
            y="3.78773"
            width="1.2625"
            height="1.2625"
            fill="#4D4D4D"
          />
          <rect
            x="2.52502"
            y="3.78773"
            width="1.2625"
            height="1.2625"
            fill="#4D4D4D"
          />
          <rect
            x="3.7876"
            y="3.78773"
            width="1.2625"
            height="1.2625"
            fill="#4D4D4D"
          />
          <rect
            x="5.05029"
            y="2.52522"
            width="1.2625"
            height="1.2625"
            fill="#4D4D4D"
          />
          <rect
            x="5.05029"
            y="1.26274"
            width="1.2625"
            height="1.2625"
            fill="#4D4D4D"
          />
          <rect
            x="2.52502"
            y="2.52522"
            width="1.2625"
            height="1.2625"
            fill="#4D4D4D"
          />
          <rect
            x="2.52502"
            y="1.26274"
            width="1.2625"
            height="1.2625"
            fill="#4D4D4D"
          />
          <rect
            x="3.7876"
            y="2.52522"
            width="1.2625"
            height="1.2625"
            fill="#4D4D4D"
          />
          <rect
            x="1.26245"
            y="5.05025"
            width="1.2625"
            height="1.2625"
            fill="#4D4D4D"
          />
          <rect
            x="1.26245"
            y="3.78773"
            width="1.2625"
            height="1.2625"
            fill="#4D4D4D"
          />
          <rect
            x="1.26245"
            y="2.52522"
            width="1.2625"
            height="1.2625"
            fill="#4D4D4D"
          />
          <rect
            x="1.26245"
            y="1.2625"
            width="1.2625"
            height="1.2625"
            fill="#4D4D4D"
          />
          <rect
            x="1.26245"
            y="-1.52588e-05"
            width="1.2625"
            height="1.2625"
            fill="#4D4D4D"
          />
          <rect y="3.78773" width="1.2625" height="1.2625" fill="#4D4D4D" />
          <rect y="2.52522" width="1.2625" height="1.2625" fill="#4D4D4D" />
          <rect y="1.26274" width="1.2625" height="1.2625" fill="#4D4D4D" />
          <rect
            x="6.31287"
            y="5.05025"
            width="1.2625"
            height="1.2625"
            fill="#4D4D4D"
          />
          <rect
            x="6.31287"
            y="3.78773"
            width="1.2625"
            height="1.2625"
            fill="#4D4D4D"
          />
          <rect
            x="6.31287"
            y="2.52522"
            width="1.2625"
            height="1.2625"
            fill="#4D4D4D"
          />
          <rect
            x="6.31287"
            y="1.2625"
            width="1.2625"
            height="1.2625"
            fill="#4D4D4D"
          />
          <path
            d="M6.31287 0.0189819H7.57537V1.28148H6.31287V0.0189819Z"
            fill="#4D4D4D"
          />
          <rect
            x="7.57544"
            y="3.78773"
            width="1.2625"
            height="1.2625"
            fill="#4D4D4D"
          />
          <rect
            x="7.57544"
            y="2.52522"
            width="1.2625"
            height="1.2625"
            fill="#4D4D4D"
          />
          <rect
            x="7.57544"
            y="1.26274"
            width="1.2625"
            height="1.2625"
            fill="#4D4D4D"
          />
        </svg>